<svg width="56" height="64" viewBox="0 0 56 64" fill="none" xmlns="http://www.w3.org/2000/svg">
<path d="M35.2077 52.2529C34.2498 50.5939 33.7098 48.7268 33.6341 46.8126C33.4877 47.2311 33.3203 47.6495 33.1403 48.068C33.2115 48.587 33.7053 52.6714 31.5668 53.8976C31.1818 54.1194 30.9223 55.4586 30.8512 56.2495V56.2872C30.8512 56.3165 29.9598 58.8442 27.5367 58.8777C25.0969 58.8358 24.2013 56.3249 24.2013 56.2747V56.237C24.1302 55.446 23.8666 54.1069 23.4857 53.8851C21.3472 52.6631 21.8411 48.5744 21.9122 48.0555C21.7281 47.637 21.5649 47.2185 21.4184 46.8C21.3427 48.7142 20.8027 50.5813 19.8449 52.2404C18.7107 54.2408 19.2506 57.6264 19.9076 58.727L20.0122 58.9028C20.8492 60.2922 23.0212 63.9833 27.4363 64H27.6204C32.0355 64 34.22 60.2922 35.0403 58.9028L35.1449 58.727C35.8019 57.6389 36.3376 54.2533 35.2077 52.2529Z" fill="#7E7E8D"/>
<path d="M55.0358 16.4468C55.0107 15.6391 54.6926 16.225 54.6926 16.225C54.6926 16.225 53.8557 19.2549 53.638 19.6776C53.4204 20.1002 52.7801 21.4436 51.8846 22.1885C50.989 22.9334 50.4115 23.264 50.1478 23.3226C49.8842 23.3812 49.8214 23.3226 50.0558 22.5735C50.311 21.7365 50.8593 18.7778 50.9137 18.489C50.9681 18.2003 51.5163 15.773 51.42 14.8733C51.4767 13.6626 51.6165 12.4573 51.8385 11.2659C51.9055 11.0525 52.4746 7.28603 52.4244 6.56623C52.3742 5.84642 51.667 4.12224 51.5163 3.66608C51.3656 3.20993 51.2192 1.8289 50.943 1.23883C50.6668 0.648759 50.7839 0.0921657 50.4868 0.142385C50.1897 0.192604 50.4868 1.23883 50.4868 1.36438C50.4868 1.48993 50.5831 2.90024 50.5998 3.33129C50.6891 4.10655 50.8403 4.87344 51.0518 5.62462C51.2349 6.13643 51.2895 6.6854 51.2108 7.22326C51.1062 7.82589 51.0141 8.83445 50.7923 9.11903C50.5705 9.4036 49.9553 10.4498 49.1937 9.60866C48.9593 9.35338 48.2521 7.79241 47.9382 7.29859C47.6243 6.80477 47.2686 5.85479 46.8543 5.34005C46.3447 4.6788 45.7775 4.064 45.1594 3.50287C44.66 3.03647 44.2264 2.50429 43.8705 1.92097C43.544 1.50248 42.841 0.535767 42.5145 0.159125C42.2969 -0.0919702 41.9328 -0.129635 42.4476 0.678053C42.9623 1.48574 43.7993 3.189 44.2178 3.7456C44.7037 4.49258 45.1466 5.26665 45.5444 6.06404C45.7662 6.48253 46.4484 7.851 46.7371 8.36156C47.0259 8.87211 47.5448 10.0648 47.934 10.8725C48.5397 12.1396 48.9301 13.4988 49.089 14.8942C49.1937 16.1231 49.0832 17.3609 48.7626 18.5518C48.4864 19.665 48.545 20.8075 48.3441 21.6026C48.3441 21.6026 48.206 23.5863 47.0091 24.8208C46.5367 25.3056 46.029 25.7546 45.49 26.1642C45.49 24.9589 45.444 23.942 45.4189 23.7871C45.4189 23.7871 45.038 23.6449 44.8916 24.7622C44.8079 25.39 44.7577 26.1223 44.6823 26.7501C44.3559 26.9802 44.0964 27.1434 43.9667 27.2271C43.5984 27.4615 41.2674 28.604 40.3802 29.261C39.493 29.918 34.7139 33.0274 34.4502 33.3036C34.2819 33.471 34.0791 33.5996 33.856 33.6803C33.856 33.6803 33.8267 31.4958 33.856 31.2363C33.8852 30.9768 33.8894 28.9179 33.9271 28.6835C33.9648 28.4491 34.0443 26.7543 34.0987 26.4655C34.1531 26.1767 34.5465 23.9001 34.1531 23.8374C33.7597 23.7746 33.7932 24.758 33.4584 25.5113C33.1236 26.2646 32.9771 27.88 32.8809 28.3738C32.7846 28.8676 32.5503 31.9645 32.5796 32.1402C32.6088 32.316 32.5252 33.8561 32.2741 34.1783C32.0179 34.4693 31.8791 34.8452 31.8849 35.2329C31.9183 35.5719 30.9935 36.0699 30.9265 36.1075C30.3657 35.936 28.9805 35.8941 28.7838 36.187C28.6918 36.3293 28.6499 36.6055 27.7669 36.6055H27.294C26.4068 36.6348 26.3608 36.3419 26.2771 36.187C26.1264 35.9401 24.6659 35.9527 24.1135 36.1201C23.8959 36.0197 23.1551 35.643 23.1844 35.3459C23.1882 34.9586 23.0497 34.5833 22.7952 34.2913C22.5399 33.969 22.4562 32.429 22.4897 32.2574C22.5232 32.0858 22.2805 28.9932 22.1842 28.491C22.088 27.9888 21.9457 26.3651 21.6109 25.6243C21.2761 24.8836 21.3054 23.8918 20.9162 23.9504C20.527 24.0089 20.9162 26.2897 20.9706 26.5785C21.025 26.8672 21.1045 28.558 21.1422 28.7965C21.1799 29.035 21.1757 31.0898 21.2133 31.3493C21.251 31.6088 21.2133 33.7933 21.2133 33.7933C20.9893 33.7118 20.7853 33.5834 20.6149 33.4166C20.3512 33.1446 15.593 30.0269 14.6849 29.374C13.7767 28.7212 11.4667 27.5787 11.0984 27.3401C10.9728 27.2564 10.7176 27.0932 10.3828 26.8631C10.3116 26.2353 10.2614 25.503 10.1777 24.8752C10.0271 23.7579 9.65041 23.896 9.65041 23.896C9.6253 24.055 9.57508 25.0719 9.57508 26.2772C9.03702 25.8666 8.52932 25.4176 8.05596 24.9338C6.85907 23.6783 6.72516 21.7156 6.72516 21.7156C6.50336 20.9205 6.56613 19.7822 6.30667 18.669C5.99038 17.4758 5.87999 16.2375 5.98024 15.0072C6.14727 13.6255 6.53735 12.28 7.13528 11.0232C7.52448 10.1862 8.05177 9.01022 8.33635 8.51221C8.62092 8.01421 9.30725 6.61226 9.52486 6.21469C9.92751 5.42283 10.3746 4.65437 10.864 3.91299C11.2825 3.37314 12.1195 1.64895 12.6343 0.84545C13.149 0.0419468 12.7849 0.0754262 12.5673 0.326521C12.2409 0.703163 11.5336 1.68243 11.2156 2.08837C10.8433 2.66553 10.3973 3.19168 9.88895 3.65353C9.2794 4.21536 8.71935 4.82863 8.21499 5.48652C7.79649 6.00545 7.44078 6.97635 7.13109 7.44924C6.82141 7.92214 6.1016 9.50404 5.87562 9.75932C5.10559 10.5963 4.48623 9.55844 4.27698 9.26968C4.06774 8.98092 3.97985 7.97654 3.85849 7.37392C3.77977 6.83605 3.83438 6.28709 4.01752 5.77528C4.22964 5.02446 4.37941 4.25741 4.4653 3.48195C4.48623 3.06345 4.58667 1.64477 4.58248 1.51504C4.5783 1.3853 4.87542 0.343261 4.58248 0.293042C4.28954 0.242823 4.39834 0.799416 4.12214 1.38949C3.84594 1.97956 3.70365 3.3564 3.55299 3.81674C3.40233 4.27708 2.71601 5.95523 2.64905 6.72107C2.58209 7.48691 3.12613 11.1654 3.19309 11.3789C3.41051 12.571 3.5503 13.776 3.61158 14.9863C3.51533 15.886 4.06355 18.3342 4.11795 18.602C4.17236 18.8699 4.72058 21.8495 4.98005 22.6865C5.21022 23.444 5.12652 23.4733 4.87961 23.4356C4.6327 23.398 4.04263 23.0171 3.15961 22.2889C2.27659 21.5608 1.64049 20.1965 1.40195 19.778C1.16341 19.3595 0.347348 16.338 0.347348 16.338C0.347348 16.338 0.0334793 15.7521 0 16.5598C0.0578046 18.1059 0.339738 19.6354 0.836982 21.1004C1.3096 22.1382 1.9988 23.0628 2.8583 23.8123C3.02569 23.9755 5.0219 25.0677 5.8798 26.1851C6.4908 26.997 8.44934 28.3571 9.73411 29.1145C9.73411 29.2234 9.75922 29.3238 9.77596 29.4242C10.0731 31.3535 10.6757 32.4918 12.7891 33.7305C14.982 34.986 16.3295 34.149 18.8991 34.9274C21.1254 35.597 20.9329 37.25 20.8409 37.6811C20.5437 37.3295 15.7478 34.9818 12.6091 34.9818C11.5085 34.9818 11.8935 36.2959 12.7012 38.0661C13.5499 39.6106 14.7392 40.9416 16.1789 41.958C17.2837 42.6444 19.7319 43.2344 20.6986 43.1382C20.8403 42.981 20.9638 42.8083 21.0669 42.6234C20.9833 42.9329 20.9466 43.2531 20.958 43.5734C20.9919 44.2172 21.0944 44.8555 21.2635 45.4776C21.3556 45.85 21.569 46.4694 21.7574 46.9925C21.9457 47.5156 22.1089 47.9174 22.1089 47.955C22.1089 47.9927 21.4477 52.3827 23.5443 53.613C24.013 53.8892 24.2265 55.287 24.2976 55.8436V56.0654H24.3395C24.3395 56.0654 25.1764 58.5763 27.474 58.5763H27.6079C29.5497 58.5763 30.4452 56.7726 30.6796 56.2119C30.7173 56.1198 30.7382 56.057 30.7382 56.057C30.7382 56.057 30.9307 53.9395 31.5166 53.6005C33.609 52.3701 32.952 47.9425 32.952 47.9425C32.952 47.9425 33.0022 47.8127 33.0315 47.75C33.1442 47.5131 33.2393 47.2684 33.3161 47.0176C33.4877 46.5238 33.6969 45.8835 33.7974 45.4859C33.9673 44.8642 34.0684 44.2256 34.0987 43.5818C34.1113 43.2617 34.076 42.9415 33.9941 42.6318C34.0965 42.816 34.2186 42.9886 34.3581 43.1466C35.329 43.2428 37.7772 42.6527 38.8778 41.9664C40.3198 40.9512 41.5107 39.62 42.3597 38.0744C43.1674 36.3042 43.5524 34.9902 42.4476 34.9902C39.3884 34.9902 34.7432 37.2165 34.2577 37.6643C34.1949 37.4342 33.7681 35.5719 36.1744 34.827C38.7439 34.0527 40.0957 34.9065 42.2886 33.6301C44.4019 32.3746 45.0046 31.253 45.2975 29.3238C45.2975 29.2234 45.331 29.1229 45.3435 29.0141C46.6241 28.2399 48.5868 26.8756 49.1978 26.0847C50.0558 24.9506 52.0478 23.8708 52.2194 23.7076C53.0622 22.9536 53.7355 22.0293 54.1946 20.9958C54.6968 19.529 54.9803 17.9962 55.0358 16.4468ZM11.994 31.094C11.708 30.7504 11.4842 30.3596 11.3327 29.939C12.1697 30.3575 13.5717 31.094 13.5717 31.094C13.5717 31.094 16.2375 32.6466 16.1119 32.6508C15.3551 32.6779 14.6006 32.5526 13.8931 32.2823C13.1857 32.0119 12.5399 31.6022 11.994 31.0773V31.094ZM15.3879 40.7193C13.4127 38.9575 12.3999 36.8859 12.6301 35.8857C12.6887 35.6263 15.141 35.7853 16.815 37.5597C18.0705 38.8821 20.1922 42.1003 20.1922 42.1003C19.3259 42.138 16.9112 42.0417 15.3879 40.6858V40.7193ZM38.225 37.5639C39.899 35.7853 42.3597 35.6263 42.4099 35.8899C42.6401 36.8901 41.6273 38.9616 39.6521 40.7235C38.1287 42.0794 35.7141 42.1757 34.8352 42.1087C34.8436 42.071 36.9821 38.8528 38.225 37.5304V37.5639ZM38.9406 32.542C38.8193 32.542 41.4851 30.9852 41.4851 30.9852C41.4851 30.9852 42.8703 30.2277 43.724 29.8343C43.5737 30.2529 43.3498 30.6413 43.0628 30.981C42.5139 31.5008 41.8662 31.905 41.1581 32.1695C40.4499 32.4341 39.6959 32.5536 38.9406 32.5211V32.542Z" fill="#7E7E8D"/>
</svg>
